<svg width="1440" height="1020" viewBox="0 0 1440 1020" fill="none"
  xmlns="http://www.w3.org/2000/svg">
  <g clip-path="url(#clip0_2_18)">
    <path d="M604.861 0.576538L633.006 161.712C638.405 192.621 641.12 223.939 641.12 255.315V1019.63M521.985 0.576538L566.086 111.039C591.701 175.2 604.861 243.655 604.861 312.742L604.862 1019.63M459.829 0.576538L506.46 89.5671C547.279 167.468 568.603 254.106 568.603 342.056V1019.63M406.552 0.576538L453.591 78.2018C505.107 163.214 532.345 260.721 532.345 360.128V1019.63M363.634 0.576538L410.688 74.3221C466.457 161.725 496.087 263.248 496.087 366.932V1019.63M327.375 0.576538L374.43 74.3221C430.199 161.725 459.829 263.248 459.829 366.932V1019.63M291.117 0.576538L338.172 74.3221C393.94 161.725 423.57 263.248 423.57 366.932V1019.63M254.859 0.576538L301.914 74.3221C357.682 161.725 387.312 263.248 387.312 366.932V1019.63M218.601 0.576538L265.656 74.3221C321.424 161.725 351.054 263.248 351.054 366.932V1019.63M182.343 0.576538L229.397 74.3221C285.166 161.725 314.796 263.248 314.796 366.932V1019.63M146.085 0.576538L193.139 74.3221C248.908 161.725 278.538 263.248 278.538 366.932V1019.63M109.827 0.576538L156.881 74.3221C212.65 161.725 242.28 263.248 242.28 366.932V1019.63M73.5686 0.576538L120.623 74.3221C176.392 161.725 206.022 263.248 206.022 366.932V1019.63M37.3104 0.576538L84.3648 74.3221C140.134 161.725 169.764 263.248 169.764 366.932V1019.63M1.05231 0.576538L48.1068 74.3221C103.876 161.725 133.505 263.248 133.505 366.932V1019.63M836.471 0.576538L808.326 161.712C802.926 192.621 800.211 223.939 800.211 255.315V1019.63M919.347 0.576538L875.241 111.039C849.627 175.2 836.471 243.655 836.471 312.742V1019.63M981.503 0.576538L934.874 89.5671C894.055 167.468 872.725 254.106 872.725 342.056V1019.63M1034.78 0.576538L987.74 78.2018C936.224 163.214 908.987 260.721 908.987 360.128V1019.63M1077.7 0.576538L1030.64 74.3221C974.873 161.725 945.241 263.248 945.241 366.932V1019.63M1113.96 0.576538L1066.9 74.3221C1011.14 161.725 981.503 263.248 981.503 366.932V1019.63M1150.21 0.576538L1103.16 74.3221C1047.39 161.725 1017.76 263.248 1017.76 366.932V1019.63M1186.47 0.576538L1139.42 74.3221C1083.65 161.725 1054.02 263.248 1054.02 366.932V1019.63M1222.73 0.576538L1175.67 74.3221C1119.91 161.725 1090.27 263.248 1090.27 366.932V1019.63M1258.99 0.576538L1211.93 74.3221C1156.17 161.725 1126.54 263.248 1126.54 366.932V1019.63M1295.24 0.576538L1248.19 74.3221C1192.42 161.725 1162.79 263.248 1162.79 366.932V1019.63M1331.51 0.576538L1284.45 74.3221C1228.68 161.725 1199.05 263.248 1199.05 366.932V1019.63M1367.76 0.576538L1320.7 74.3221C1264.94 161.725 1235.31 263.248 1235.31 366.932V1019.63M1404.02 0.576538L1356.97 74.3221C1301.2 161.725 1271.57 263.248 1271.57 366.932V1019.63M1440.28 0.576538L1393.22 74.3221C1337.45 161.725 1307.82 263.248 1307.82 366.932V1019.63M778.012 0.576578L763.953 208.162V1019.63M718.445 0.576538V1019.63M662.948 0.576538L677.377 208.162V1019.63" stroke="url(#paint0_linear_2_18)" style=""/>
  </g>
  <defs>
    <linearGradient id="paint0_linear_2_18" x1="9.74209e-06" y1="-3.08486e-06" x2="9.74209e-06" y2="964.539" gradientUnits="userSpaceOnUse">
      <stop offset="0.1" stop-color="#1B1C20" stop-opacity="0" style="stop-color:none;stop-opacity:0;"/>
      <stop offset="0.35" stop-color="#1B1C20" style="stop-color:#1B1C20;stop-color:color(display-p3 0.1059 0.1098 0.1255);stop-opacity:1;"/>
      <stop offset="0.55" stop-color="#1B1C20" stop-opacity="0.2" style="stop-color:#1B1C20;stop-color:color(display-p3 0.1059 0.1098 0.1255);stop-opacity:0.2;"/>
      <stop offset="0.6" stop-color="#1B1C20" stop-opacity="0.2" style="stop-color:#1B1C20;stop-color:color(display-p3 0.1059 0.1098 0.1255);stop-opacity:0.2;"/>
      <stop offset="0.7" stop-color="#1B1C20" style="stop-color:#1B1C20;stop-color:color(display-p3 0.1059 0.1098 0.1255);stop-opacity:1;"/>
      <stop offset="1" stop-color="#1B1C20" stop-opacity="0" style="stop-color:none;stop-opacity:0;"/>
    </linearGradient>
    <clipPath id="clip0_2_18">
      <rect width="1441" height="1020" fill="white" style="fill:white;fill-opacity:1;"/>
    </clipPath>
  </defs>
</svg>
