<svg width="32" height="28" viewBox="0 0 32 28" fill="none"
  xmlns="http://www.w3.org/2000/svg">
  <path opacity="0.977" fill-rule="evenodd" clip-rule="evenodd" d="M22.9241 0.0287723C26.0067 -0.134281 28.9589 0.395687 31.7807 1.61868C31.9899 1.84884 32.0494 2.11972 31.9593 2.4313C31.1086 4.96455 29.7396 7.16689 27.8524 9.03824C25.9318 9.65986 23.9795 9.78938 21.9955 9.42688C21.3746 9.67639 21.3031 10.0179 21.7813 10.4515C23.0619 10.6182 24.3476 10.6652 25.6382 10.5928C26.0268 10.5419 26.4077 10.4594 26.781 10.3455C26.0931 11.5789 25.0932 12.5329 23.7812 13.2073C22.4469 13.7021 21.066 13.9141 19.6385 13.8433C20.4933 14.2536 21.398 14.4421 22.3527 14.4086C22.6224 14.6174 22.7057 14.8882 22.6026 15.2212C20.6002 17.2029 18.4693 19.0284 16.2101 20.6975C15.5761 21.0873 14.8856 21.3228 14.1388 21.4042C13.3225 21.4576 12.513 21.434 11.7104 21.3335C12.0476 21.6475 12.4166 21.9183 12.8175 22.1461C12.8651 22.3581 12.8651 22.5701 12.8175 22.7821C12.7308 22.8915 12.6236 22.9739 12.496 23.0294C10.0236 23.9101 7.54753 23.9218 5.06788 23.0647C9.47728 16.4059 15.0484 10.8824 21.7813 6.49439C22.0742 6.19097 22.0504 5.90832 21.7098 5.64644C21.5432 5.59931 21.3765 5.59931 21.2099 5.64644C12.6217 11.2686 5.94347 18.5821 1.17523 27.5871C0.88055 28.0544 0.511527 28.125 0.0681431 27.7991C-0.00862417 27.5915 -0.0205307 27.3795 0.0324308 27.1632C1.12872 25.0103 2.37866 22.9611 3.78223 21.0155C2.87651 17.6531 3.41219 14.5439 5.38929 11.6881C5.82748 11.1838 6.29174 10.701 6.78207 10.2395C7.15791 10.0653 7.45553 10.1477 7.67488 10.4868C7.71009 11.0024 7.82908 11.4971 8.032 11.9707C8.32327 10.3885 8.63283 8.81035 8.96052 7.23635C10.0163 5.87157 11.2663 4.7645 12.7103 3.91521C11.8332 5.47819 11.4642 7.15056 11.6032 8.93225C11.7574 9.59845 12.0908 9.71625 12.6032 9.28556C12.4569 7.67728 12.7426 6.14624 13.4603 4.6925C13.7726 4.01583 14.094 3.34454 14.4245 2.67862C15.5299 2.04351 16.6845 1.51354 17.8886 1.08871C17.9243 1.11226 17.96 1.13582 17.9958 1.15937C17.3336 2.04554 16.8217 3.01125 16.4601 4.05653C16.3156 4.59541 16.518 4.86626 17.0672 4.86915C17.1694 4.83629 17.2527 4.77736 17.3172 4.6925C17.5242 4.00015 17.8099 3.34065 18.1743 2.71395C18.6386 2.0191 19.1028 1.32425 19.5671 0.629404C20.676 0.326622 21.795 0.126407 22.9241 0.0287723Z" fill="url(#paint0_linear_1_7)" style=""/>
  <defs>
    <linearGradient id="paint0_linear_1_7" x1="26" y1="4" x2="9.71089" y2="25.6586" gradientUnits="userSpaceOnUse">
      <stop stop-color="#B0E1FC" style="stop-color:#B0E1FC;stop-color:color(display-p3 0.6902 0.8824 0.9882);stop-opacity:1;"/>
      <stop offset="1" stop-color="#EEF6FC" style="stop-color:#EEF6FC;stop-color:color(display-p3 0.9333 0.9647 0.9882);stop-opacity:1;"/>
    </linearGradient>
  </defs>
</svg>
